<?xml version="1.0" encoding="utf-8"?>
<!-- Generator: Adobe Illustrator 16.0.0, SVG Export Plug-In . SVG Version: 6.00 Build 0)  -->
<!DOCTYPE svg PUBLIC "-//W3C//DTD SVG 1.1//EN" "http://www.w3.org/Graphics/SVG/1.1/DTD/svg11.dtd">
<svg version="1.1" id="Layer_1" xmlns="http://www.w3.org/2000/svg" xmlns:xlink="http://www.w3.org/1999/xlink" x="0px" y="0px"
	 width="106px" height="11px" viewBox="0 0 106 11" enable-background="new 0 0 106 11" xml:space="preserve">
<g>
	<g>
		<g>
			<line fill="none" stroke="#00FF00" stroke-width="2" stroke-miterlimit="10" x1="18" y1="5" x2="10" y2="5"/>
			<g>
				<polygon fill="#00FF00" points="26,5.375 14.061,0.497 16.894,5.375 14.061,10.252 				"/>
			</g>
		</g>
	</g>
	<g>
		<path fill="#EFEFEF" d="M10,6.197C10,8.297,8.297,10,6.197,10H5.803C3.703,10,2,8.297,2,6.197V5.803C2,3.703,3.703,2,5.803,2
			h0.394C8.297,2,10,3.703,10,5.803V6.197z"/>
		<path fill="#BFBFBF" d="M6.849,2C8.67,2,10,3.482,10,5.303v0.394C10,7.518,8.518,9,6.697,9H6.303C4.482,9,3,7.518,3,5.697V5.303
			C3,3.482,4.482,2,6.303,2H7 M6.697,1H6.303C3.927,1,2,2.927,2,5.303v0.394C2,8.073,3.927,10,6.303,10h0.394
			C9.073,10,11,8.073,11,5.697V5.303C11,2.927,9.073,1,6.697,1L6.697,1z"/>
	</g>
</g>
<g>
	<g>
		<line fill="none" stroke="#FF0000" stroke-width="2" stroke-miterlimit="10" x1="44" y1="5" x2="36" y2="5"/>
		<g>
			<polygon fill="#FF0000" points="52,5.375 40.061,0.497 42.894,5.375 40.061,10.252 			"/>
		</g>
	</g>
</g>
<g>
	<path fill="#EFEFEF" d="M36,6.197C36,8.297,34.297,10,32.197,10h-0.394C29.703,10,28,8.297,28,6.197V5.803
		C28,3.703,29.703,2,31.803,2h0.394C34.297,2,36,3.703,36,5.803V6.197z"/>
	<path fill="#BFBFBF" d="M32.849,2C34.67,2,36,3.482,36,5.303v0.394C36,7.518,34.518,9,32.697,9h-0.394C30.482,9,29,7.518,29,5.697
		V5.303C29,3.482,30.482,2,32.303,2H33 M32.697,1h-0.394C29.927,1,28,2.927,28,5.303v0.394C28,8.073,29.927,10,32.303,10h0.394
		C35.073,10,37,8.073,37,5.697V5.303C37,2.927,35.073,1,32.697,1L32.697,1z"/>
</g>
<g>
	<path fill="#EFEFEF" d="M62,6.197C62,8.297,60.297,10,58.197,10h-0.394C55.703,10,54,8.297,54,6.197V5.803
		C54,3.703,55.703,2,57.803,2h0.394C60.297,2,62,3.703,62,5.803V6.197z"/>
	<path fill="#BFBFBF" d="M58.849,2C60.67,2,62,3.482,62,5.303v0.394C62,7.518,60.518,9,58.697,9h-0.394C56.482,9,55,7.518,55,5.697
		V5.303C55,3.482,56.482,2,58.303,2H59 M58.697,1h-0.394C55.927,1,54,2.927,54,5.303v0.394C54,8.073,55.927,10,58.303,10h0.394
		C61.073,10,63,8.073,63,5.697V5.303C63,2.927,61.073,1,58.697,1L58.697,1z"/>
</g>
<g>
	<g>
		<line fill="none" stroke="#00FF00" stroke-width="2" stroke-miterlimit="10" x1="72" y1="5" x2="78" y2="5"/>
		<g>
			<polygon fill="#00FF00" points="64,5.375 75.939,10.253 73.106,5.375 75.939,0.498 			"/>
		</g>
	</g>
</g>
<g>
	<path fill="#EFEFEF" d="M88,6.197C88,8.297,86.297,10,84.197,10h-0.394C81.703,10,80,8.297,80,6.197V5.803
		C80,3.703,81.703,2,83.803,2h0.394C86.297,2,88,3.703,88,5.803V6.197z"/>
	<path fill="#BFBFBF" d="M84.849,2C86.67,2,88,3.482,88,5.303v0.394C88,7.518,86.518,9,84.697,9h-0.394C82.482,9,81,7.518,81,5.697
		V5.303C81,3.482,82.482,2,84.303,2H85 M84.697,1h-0.394C81.927,1,80,2.927,80,5.303v0.394C80,8.073,81.927,10,84.303,10h0.394
		C87.073,10,89,8.073,89,5.697V5.303C89,2.927,87.073,1,84.697,1L84.697,1z"/>
</g>
<g>
	<g>
		<line fill="none" stroke="#FF0000" stroke-width="2" stroke-miterlimit="10" x1="98" y1="5" x2="104" y2="5"/>
		<g>
			<polygon fill="#FF0000" points="90,5.375 101.939,10.253 99.106,5.375 101.939,0.498 			"/>
		</g>
	</g>
</g>
</svg>
