<?xml version="1.0" encoding="utf-8"?>
<!-- Generator: Adobe Illustrator 16.0.0, SVG Export Plug-In . SVG Version: 6.00 Build 0)  -->
<!DOCTYPE svg PUBLIC "-//W3C//DTD SVG 1.1//EN" "http://www.w3.org/Graphics/SVG/1.1/DTD/svg11.dtd">
<svg version="1.1"
	 id="svg5087" sodipodi:version="0.32" inkscape:version="0.45.1" inkscape:export-ydpi="90" sodipodi:docbase="/home/christian/PROJEKTE/argunet 2006/button icons" sodipodi:docname="logo-small.svg" inkscape:output_extension="org.inkscape.output.svg.inkscape" inkscape:export-filename="/home/christian/workspace/argunet.org/html/navigator/images/logo-small.png" inkscape:export-xdpi="90" xmlns:svg="http://www.w3.org/2000/svg" xmlns:cc="http://web.resource.org/cc/" xmlns:dc="http://purl.org/dc/elements/1.1/" xmlns:inkscape="http://www.inkscape.org/namespaces/inkscape" xmlns:rdf="http://www.w3.org/1999/02/22-rdf-syntax-ns#" xmlns:sodipodi="http://sodipodi.sourceforge.net/DTD/sodipodi-0.dtd"
	 xmlns="http://www.w3.org/2000/svg" xmlns:xlink="http://www.w3.org/1999/xlink" x="0px" y="0px" width="124px" height="34.415px"
	 viewBox="233.784 217.067 124 34.415" enable-background="new 233.784 217.067 124 34.415" xml:space="preserve">
<sodipodi:namedview  id="base" inkscape:window-height="618" inkscape:window-width="872" inkscape:pageshadow="2" inkscape:pageopacity="0.0" inkscape:window-x="5" inkscape:window-y="67" inkscape:current-layer="svg5087" inkscape:zoom="0.38674898" borderopacity="1.0" guidetolerance="10.0" pagecolor="#ffffff" inkscape:cx="372.04724" inkscape:cy="640.19485" bordercolor="#666666" gridtolerance="10.0" objecttolerance="10.0">
	</sodipodi:namedview>
<g id="g6213" transform="matrix(0.7849462,0,0,0.7849462,12.789269,139.6613)">
	<g id="g5093" transform="translate(59.470099,-263.73696)">
		<path id="path5095" fill="#BFBFBF" d="M379.014,375.978l1.03-4.971h-4.116l1.844-8.657l-7.757,4.629l-0.857,4.028h-3.299
			l-1.03,4.971h3.26l-2.101,10.116c-0.559,2.785-0.857,4.542-0.814,5.314c-0.044,1.629,0.514,2.913,1.629,3.813
			c1.028,0.944,2.742,1.372,5.184,1.372c1.202,0,2.4-0.086,3.6-0.343l1.029-5.014c-1.201,0.129-1.971,0.172-2.229,0.172
			c-0.898,0-1.498-0.129-1.798-0.473c-0.345-0.3-0.472-0.686-0.472-1.157c-0.045-0.342,0.172-1.414,0.556-3.299l2.229-10.502
			H379.014z"/>
	</g>
	<g id="g5097" transform="translate(59.470099,-263.73696)">
		<path id="path5099" fill="#BFBFBF" d="M360.33,373.236c-1.799-1.886-4.2-2.828-7.286-2.828c-4.801,0-8.486,1.801-11.058,5.357
			c-1.885,2.7-2.829,5.743-2.87,9.215c0,3.515,1.071,6.342,3.17,8.486c2.1,2.099,4.845,3.128,8.23,3.128
			c2.441,0,4.628-0.6,6.599-1.844c1.972-1.2,3.557-3.042,4.758-5.443l-6.13-1.028c-1.243,2.314-3,3.471-5.227,3.471
			c-1.372,0-2.529-0.514-3.43-1.5c-0.985-1.028-1.457-2.356-1.457-4.028c0-0.172,0-0.386,0-0.643l0.685-4.071
			c0.386-2.1,1.116-3.643,2.272-4.672c1.071-1.072,2.356-1.586,3.729-1.586c1.413,0,2.529,0.472,3.343,1.371
			c0.857,0.943,1.243,2.314,1.285,4.158c0,0.17,0,0.428,0,0.728h-10.628l-0.685,4.071h16.972c0.342-1.286,0.513-2.743,0.471-4.415
			C363.073,377.736,362.172,375.079,360.33,373.236z"/>
	</g>
	<g id="g5101" transform="translate(59.470099,-263.73696)">
		<path id="path5103" fill="#BFBFBF" d="M307.401,371.007h-4.244v13.372c0,2.142-0.215,3.77-0.686,4.927
			c-0.471,1.072-1.285,1.972-2.357,2.616c-1.157,0.686-2.356,0.985-3.6,0.985c-1.286,0-2.357-0.299-3.257-0.9
			c-0.815-0.643-1.371-1.585-1.628-2.7c-0.172-0.771-0.258-2.229-0.258-4.456v-13.843h-4.243v15.472
			c-0.042,1.8,0.044,3.085,0.215,3.943c0.3,1.243,0.728,2.314,1.328,3.171c0.643,0.857,1.586,1.585,2.872,2.186
			c1.285,0.556,2.657,0.814,4.114,0.814c3.343,0,6-1.415,7.929-4.242v3.685h3.815V371.007z"/>
	</g>
	<path id="path5107" fill="#BFBFBF" d="M341.113,137.186c0.772-1.629,1.158-4.415,1.201-8.314V107.27h-3.943v3.001
		c-1.929-2.401-4.372-3.6-7.287-3.6c-2.271,0-4.199,0.514-5.785,1.629c-1.671,1.114-2.914,2.7-3.814,4.758
		c-0.814,1.972-1.242,4.157-1.242,6.514c0,3.514,0.942,6.515,2.828,8.957c1.886,2.485,4.543,3.729,7.929,3.772
		c2.828-0.042,5.143-1.114,6.986-3.3l-1.672-2.486c-1.286,1.5-2.957,2.272-4.886,2.272c-1.971,0-3.6-0.771-4.886-2.272
		c-1.328-1.499-1.971-3.9-1.971-7.199c0-3.001,0.643-5.273,1.971-6.814c1.329-1.543,2.915-2.315,4.8-2.315
		c1.929,0,3.557,0.772,4.928,2.315c1.329,1.585,2.015,3.899,2.015,6.942c0,3.214-0.686,5.572-1.972,7.071l1.672,2.486
		c0,2.743-0.129,4.544-0.386,5.442c-0.3,1.373-1.029,2.486-2.101,3.301c-1.071,0.815-2.571,1.157-4.542,1.157
		c-1.843,0-3.258-0.342-4.329-1.157c-0.771-0.601-1.286-1.5-1.457-2.786l-4.072-0.557c-0.085,2.657,0.772,4.671,2.615,6
		c1.843,1.371,4.243,2.057,7.243,2.057c2.527,0,4.671-0.472,6.385-1.458C339.013,140.099,340.257,138.814,341.113,137.186z"/>
	<g id="g5109" transform="translate(59.470099,-263.73696)">
		<path id="path5111" fill="#BFBFBF" d="M337.444,376.837c0-1.928-0.601-3.471-1.8-4.628c-1.201-1.201-2.871-1.801-4.929-1.801
			c-1.5,0-2.957,0.3-4.328,0.9c-1.372,0.6-2.915,1.543-4.5,2.915l0.6-3.215h-6.342l-5.271,25.029h6.772l2.186-10.285
			c0.6-3.001,1.157-5.015,1.629-5.958c0.728-1.371,1.671-2.443,2.914-3.299c1.158-0.814,2.229-1.243,3.257-1.243
			c0.899,0,1.629,0.214,2.185,0.728c0.472,0.473,0.729,1.158,0.729,2.015c0,0.429-0.213,1.671-0.684,3.814l-2.916,14.229h6.729
			l2.958-14.229C337.143,379.364,337.402,377.694,337.444,376.837z"/>
	</g>
	<g id="g5113" transform="translate(59.470099,-263.73696)">
		<path id="path5115" fill="#BFBFBF" d="M234.114,370.408c-2.228,0-4.157,0.3-5.742,0.9c-1.586,0.557-2.829,1.414-3.73,2.486
			c-0.857,1.115-1.499,2.571-1.843,4.371l4.157,0.514c0.429-1.755,1.115-2.999,2.057-3.684c0.944-0.687,2.444-1.072,4.415-1.072
			c2.143,0,3.772,0.471,4.843,1.458c0.815,0.685,1.201,1.885,1.201,3.642c0,0.172,0,0.514,0,1.114v3.344v1.499
			c0,1.885-0.215,3.3-0.729,4.286c-0.557,1.199-1.457,2.186-2.743,2.957c-1.244,0.686-2.743,1.029-4.415,1.029
			c-1.628,0-2.871-0.343-3.729-1.114c-0.9-0.728-1.329-1.714-1.286-2.83c0-0.771,0.172-1.413,0.6-2.014
			c0.386-0.6,0.942-1.071,1.671-1.415c0.686-0.299,1.928-0.6,3.686-0.857c3.129-0.429,5.443-0.944,6.943-1.542v-3.344
			c-1.586,0.557-4.115,1.029-7.544,1.415c-1.714,0.213-2.957,0.428-3.814,0.686c-1.114,0.299-2.142,0.728-3.042,1.37
			c-0.9,0.601-1.629,1.458-2.185,2.487c-0.558,1.028-0.815,2.142-0.815,3.342c0,2.058,0.728,3.771,2.185,5.144
			c1.458,1.37,3.6,2.014,6.387,2.014c1.629,0,3.214-0.258,4.629-0.814c1.414-0.601,2.957-1.543,4.542-2.872
			c0.129,1.199,0.429,2.229,0.857,3.129h4.458c-0.557-0.985-0.943-2.015-1.115-3.042c-0.171-1.071-0.257-3.558-0.257-7.501v-5.658
			c0-1.885-0.042-3.171-0.172-3.857c-0.3-1.199-0.728-2.141-1.371-2.871c-0.643-0.814-1.629-1.457-2.915-1.928
			C237.93,370.665,236.215,370.408,234.114,370.408z"/>
	</g>
	<g id="g5117" transform="translate(59.470099,-263.73696)">
		<path id="path5119" fill="#BFBFBF" d="M257.514,370.408c-0.984,0-1.885,0.258-2.742,0.857c-0.814,0.557-1.714,1.757-2.657,3.556
			v-3.814H248.3v25.029h4.2v-13.157c0-1.757,0.215-3.386,0.729-4.929c0.3-0.986,0.771-1.714,1.543-2.271
			c0.771-0.601,1.586-0.858,2.486-0.858c1.072,0,2.143,0.301,3.171,0.901l1.458-3.943
			C260.387,370.879,258.929,370.408,257.514,370.408z"/>
	</g>
</g>
</svg>
