<?xml version="1.0" encoding="utf-8"?>
<!-- Generator: Adobe Illustrator 16.0.0, SVG Export Plug-In . SVG Version: 6.00 Build 0)  -->
<!DOCTYPE svg PUBLIC "-//W3C//DTD SVG 1.1//EN" "http://www.w3.org/Graphics/SVG/1.1/DTD/svg11.dtd">
<svg version="1.1" id="Layer_1" xmlns="http://www.w3.org/2000/svg" xmlns:xlink="http://www.w3.org/1999/xlink" x="0px" y="0px"
	 width="106px" height="12px" viewBox="0 0 106 12" enable-background="new 0 0 106 12" xml:space="preserve">
<line fill="none" stroke="#54BC11" stroke-width="2" stroke-miterlimit="10" x1="18" y1="5.886" x2="10" y2="5.886"/>
<g>
	<polygon fill="#54BC11" points="26,5.886 14.061,1.008 16.894,5.886 14.061,10.763 	"/>
</g>
<g>
	<path fill="#EFEFEF" d="M10.25,6.083c0,2.1-1.703,3.803-3.803,3.803H6.053c-2.1,0-3.803-1.703-3.803-3.803V5.688
		c0-2.1,1.703-3.803,3.803-3.803h0.394c2.1,0,3.803,1.703,3.803,3.803V6.083z"/>
	<path fill="#BFBFBF" d="M6.599,2.385c1.821,0,3.151,1.482,3.151,3.303v0.394c0,1.821-1.482,3.304-3.303,3.304H6.053
		c-1.821,0-3.303-1.482-3.303-3.304V5.688c0-1.821,1.482-3.303,3.303-3.303H6.75 M6.447,1.385H6.053
		c-2.376,0-4.303,1.927-4.303,4.303v0.394c0,2.377,1.927,4.304,4.303,4.304h0.394c2.376,0,4.303-1.927,4.303-4.304V5.688
		C10.75,3.312,8.823,1.385,6.447,1.385L6.447,1.385z"/>
</g>
<line fill="none" stroke="#D9000E" stroke-width="2" stroke-miterlimit="10" x1="44" y1="5.886" x2="36" y2="5.886"/>
<g>
	<polygon fill="#D9000E" points="52,5.886 40.061,1.008 42.894,5.886 40.061,10.763 	"/>
</g>
<path fill="#EFEFEF" d="M36.25,6.083c0,2.1-1.703,3.803-3.803,3.803h-0.394c-2.1,0-3.803-1.703-3.803-3.803V5.688
	c0-2.1,1.703-3.803,3.803-3.803h0.394c2.1,0,3.803,1.703,3.803,3.803V6.083z"/>
<path fill="#BFBFBF" d="M32.599,2.385c1.821,0,3.151,1.482,3.151,3.303v0.394c0,1.821-1.482,3.304-3.303,3.304h-0.394
	c-1.821,0-3.303-1.482-3.303-3.304V5.688c0-1.821,1.482-3.303,3.303-3.303h0.697 M32.447,1.385h-0.394
	c-2.376,0-4.303,1.927-4.303,4.303v0.394c0,2.377,1.927,4.304,4.303,4.304h0.394c2.376,0,4.303-1.927,4.303-4.304V5.688
	C36.75,3.312,34.823,1.385,32.447,1.385L32.447,1.385z"/>
<path fill="#EFEFEF" d="M62.25,6.083c0,2.1-1.703,3.803-3.803,3.803h-0.395c-2.1,0-3.803-1.703-3.803-3.803V5.688
	c0-2.1,1.703-3.803,3.803-3.803h0.395c2.1,0,3.803,1.703,3.803,3.803V6.083z"/>
<path fill="#BFBFBF" d="M58.6,2.385c1.82,0,3.15,1.482,3.15,3.303v0.394c0,1.821-1.482,3.304-3.303,3.304h-0.395
	c-1.82,0-3.303-1.482-3.303-3.304V5.688c0-1.821,1.482-3.303,3.303-3.303h0.697 M58.447,1.385h-0.395
	c-2.376,0-4.303,1.927-4.303,4.303v0.394c0,2.377,1.927,4.304,4.303,4.304h0.395c2.376,0,4.303-1.927,4.303-4.304V5.688
	C62.75,3.312,60.823,1.385,58.447,1.385L58.447,1.385z"/>
<line fill="none" stroke="#54BC11" stroke-width="2" stroke-miterlimit="10" x1="72" y1="5.885" x2="78" y2="5.885"/>
<g>
	<polygon fill="#54BC11" points="64,5.885 75.939,10.763 73.105,5.885 75.939,1.008 	"/>
</g>
<path fill="#EFEFEF" d="M88.25,6.083c0,2.1-1.703,3.803-3.803,3.803h-0.395c-2.1,0-3.803-1.703-3.803-3.803V5.688
	c0-2.1,1.703-3.803,3.803-3.803h0.395c2.1,0,3.803,1.703,3.803,3.803V6.083z"/>
<path fill="#BFBFBF" d="M84.6,2.385c1.82,0,3.15,1.482,3.15,3.303v0.394c0,1.821-1.482,3.304-3.303,3.304h-0.395
	c-1.82,0-3.303-1.482-3.303-3.304V5.688c0-1.821,1.482-3.303,3.303-3.303h0.697 M84.447,1.385h-0.395
	c-2.376,0-4.303,1.927-4.303,4.303v0.394c0,2.377,1.927,4.304,4.303,4.304h0.395c2.376,0,4.303-1.927,4.303-4.304V5.688
	C88.75,3.312,86.823,1.385,84.447,1.385L84.447,1.385z"/>
<line fill="none" stroke="#D9000E" stroke-width="2" stroke-miterlimit="10" x1="98" y1="5.885" x2="104" y2="5.885"/>
<g>
	<polygon fill="#D9000E" points="90,5.885 101.939,10.763 99.105,5.885 101.939,1.008 	"/>
</g>
</svg>
